/* XPM */
static char *_d97f9e31e6042c4e782318dcaf27113zoHWYixRcxzzrfhr[] = {
/* columns rows colors chars-per-pixel */
"32 32 12 1 ",
"  c None",
". c #754C60",
"X c #5F7A79",
"o c #8A4A70",
"O c #8C4E72",
"+ c #A35B70",
"@ c #AF6776",
"# c #BD757E",
"$ c #6E967C",
"% c #82A884",
"& c #D99A9A",
"* c #F3F4E7",
/* pixels */
"                                ",
"                                ",
"                                ",
"                                ",
"                                ",
"                                ",
"                                ",
"                                ",
"                                ",
"                   ****         ",
"               ****XXX*         ",
"               *.*X%%X*         ",
"             ***.X$$%X*         ",
"            *+++.XXXX*          ",
"           *+###++@@+*          ",
"          *+#&###@@@@+*         ",
"          *+###&#@@@@o*         ",
"          *+#####@@@@o*         ",
"          *o####@@@@@o*         ",
"           *o@@@@@@@o*          ",
"            *o@@o@@o*           ",
"             *Oo*oo*            ",
"              ** **             ",
"                                ",
"                                ",
"                                ",
"                                ",
"                                ",
"                                ",
"                                ",
"                                ",
"                                "
};
