/* XPM */
static char *_b18e02998d246d1fa1a2b4cc2c89605gnareW2EpnzYoPXV[] = {
/* columns rows colors chars-per-pixel */
"32 32 8 1 ",
"  c None",
". c #6B4B5B",
"X c #90625D",
"o c #AA7959",
"O c #B09643",
"+ c #BFA954",
"@ c #D4C169",
"# c #EAE178",
/* pixels */
"                                ",
"                                ",
"                                ",
"          XXXXXXXXXXXX          ",
"         X############X         ",
"        X#@@@@@@@@@@@@#X        ",
"        X@@XXXXXXXXXX@@X        ",
"        X@XXXooooooXXX@X        ",
"        X@XXXXooooXXXX@X        ",
"        X@XXXXXXXXXXXX@X        ",
"         X@XXXXXXXXXX@X         ",
"        XOO..........OOX        ",
"        XO............OX        ",
"        XO............OX        ",
"        XO............OX        ",
"        XOO..........OOX        ",
"        X+OOOOOOOOOOOO+X        ",
"        X@+XXXXXXXXXX+@X        ",
"        X@@oooooooooo@@X        ",
"        X@@oooooooooo@@X        ",
"        X@@oooooooooo@@X        ",
"         X@@@@@@@@@@@@X         ",
"          XXXXXXXXXXXX          ",
"                                ",
"                                ",
"                                ",
"                                ",
"                                ",
"                                ",
"                                ",
"                                ",
"                                "
};
