/* XPM */
static char *ad020f0b932c437ac93d66e563c97246tYJqg0Koi8jQagZ0[] = {
/* columns rows colors chars-per-pixel */
"32 32 3 1 ",
"  c #A4C263",
". c #C0D470",
"X c #D2E077",
/* pixels */
"................................",
"................................",
"......................     .....",
"...    .............        ....",
"..       ..........         ....",
"..        .........         ....",
"..        ..........       .....",
"..        ......................",
"...      .................   ...",
"..................    ...     ..",
".........    ....      ..     ..",
"........      ...      ...   ...",
"........      ....    ..........",
".........    ...................",
"................................",
"................................",
"................................",
"................................",
"................................",
"...XXXXX..............XXXXX.....",
"..XXXXXXX............XXXXXXXX...",
"..XXXXXXX............XXXXXXXXX..",
"...XXXXX.............XXXXXXXXX..",
"......................XXXXXXX...",
".........XXXX...................",
".......XXXXXXX.....XXXX.........",
".......XXXXXXX....XXXXXX........",
"..XXX...XXXXX.....XXXXXX........",
".XXXXX.............XXXX.........",
".XXXXX..........................",
"..XXX...........................",
"................................"
};
