/* XPM */
static char *_764de3cd29d43ad88cba310feb6a311OPssZG4CsfhhqVgq[] = {
/* columns rows colors chars-per-pixel */
"32 32 8 1 ",
"  c None",
". c #EAE178",
"X c #5C4E92",
"o c #766DAA",
"O c #E8B5AC",
"+ c #DDD5DE",
"@ c #F3D8C5",
"# c #F3F2C0",
/* pixels */
"                                ",
"                                ",
"                                ",
"                                ",
"                                ",
"                                ",
"                                ",
"                                ",
"                                ",
"              XXX               ",
"             X###X              ",
"            X#OO#XX             ",
"            X#OO###X            ",
"            X######X            ",
"            X######X            ",
"           XX######XX           ",
"            X####X##X           ",
"           XX#######X           ",
"            X##@@###X           ",
"             XoooooX            ",
"            X+#oooo.            ",
"            X+####X.            ",
"             X####X             ",
"              X++X              ",
"               XX               ",
"                                ",
"                                ",
"                                ",
"                                ",
"                                ",
"                                ",
"                                "
};
