/* XPM */
static char *_b26cdeadf0441e3a23e84cdd89966202kgRRlh64tisJIHJ[] = {
/* columns rows colors chars-per-pixel */
"32 32 16 1 ",
"  c #AADCBF",
". c #ADDEBE",
"X c #AEDEBE",
"o c #B0DFBE",
"O c #B1E0BE",
"+ c #9BD4C1",
"@ c #9BD4C2",
"# c #9BD4C3",
"$ c #9CD4C1",
"% c #9ED5C1",
"& c #9FD6C1",
"* c #9CD4C2",
"= c #9CD5C2",
"- c #9DD5C2",
"; c #9ED5C2",
": c #A0D7C0",
/* pixels */
"#############OOO#############OOO",
"################################",
"#######OOO#############oOO######",
"################################",
"####################$%##########",
"OOO############OOOO...#########O",
"####################%###########",
"####################@@##########",
"#########OOOO###################",
"################################",
"####################OO##########",
"################################",
"#############OOO#############OOO",
"#######OOO#############OOO######",
"################################",
"################$%##############",
"#############OOOO..@#########OOO",
"################$ @@############",
"##################@@###oOO######",
"################################",
"################################",
"OOO#############@#@############O",
"################################",
"################################",
"###### ..oOOO############OOOO###",
"#######%@%######################",
"####OO##############OO##########",
"################################",
"#############OOO#############OOO",
"#######OOO#############OOO######",
"################################",
"################################"
};
