/* XPM */
static char *_b1739a925c14bc1e60fa7f3b1d9741fPr4glJnfFeMqPaqY[] = {
/* columns rows colors chars-per-pixel */
"32 32 15 1 ",
"  c #A9DBBF",
". c #ACDDBE",
"X c #ADDDBE",
"o c #AFDEBE",
"O c #B0DFBE",
"+ c #B1E0BE",
"@ c #9BD4C1",
"# c #9BD4C2",
"$ c #9BD4C3",
"% c #9CD4C0",
"& c #9CD5C1",
"* c #9ED5C0",
"= c #9FD6C0",
"- c #9CD4C2",
"; c #9DD4C2",
/* pixels */
"+++$$$$$$$$$$$$$+++$$$$$$$$$$$$$",
"###$$$$$$$$$$$$$###$$$$$$$$$$$$$",
"#$$$$$OO+$$$$$$$$$$$$$O+O$$$$$$$",
"$$$$$$###$$$$$$$$$$$$$#-#$$$$$$$",
"$$$$$$$$$$-##$$$$$$$$$$$$$$$$$$$",
"O$$$$$$$$$XX.OO+X$$$$$$$$$$$$OOO",
"#$$$$$$$$$####-#-$$$$$$$$$$$$###",
"$$$$$$$$$$$$$$$$$$$$$$$$$$$$$$$$",
"$$$####$$$$$$$$$$$$OOOO$$$$$$$$$",
"$$$####$$$$$$$$$$$$####$$$$$$$$$",
"$$$$$$$$$$OO$$$$$$$$$$$$$$##$$$$",
"$$$$$$$$$$##$$$$$$$$$$$$$$##$$$$",
"OOO$$$$$$$$$$$$$OOO$$$$$$$$$$$$$",
"###$$$OOO$$$$$$-###$$$OOO$$$$$$$",
"$$$$$$###$$$$$$-$$$$$$###$$$$$$$",
"$$$$$$$$$$$$$#--#$$$$$$$$$$$$$$$",
"+X+$$$$$$$$$#.X+OOO#$$$$$$$$$$$$",
"-##$$$$$$$$$#@ -###$$$$$$$$$$$$$",
"$$$$$$X+X$$$$###$$$$$$###$$$$$$$",
"$$$$$$###$$$$$$$$$$$$$###$$$$$$$",
"$$$$$$$$$$$$$$$$$$$$$$$$$$$$$$$$",
"+$$$$$$$$$$$$#$##$$$$$$$$$$$$OOO",
"#$$$$$$$$$$$$#$##$$$$$$$$$$$$###",
"$$$$$$$$$$$$$$$$$$$$$$$##$$$$$$$",
"$$$X++X$$$$$$$$$$$$OOOO.X $$$$$$",
"$$$#-#-$$$$$$$$$$$$#####--$$$$$$",
"$$$$$$$$$$OO$$$$$$$$######+O$$$$",
"$$$$$$$$$$##$$$$$$$$$$$$####$$$$",
"O+X$$$$$$$$$$$$$OOO$$$$$$$$$$$$$",
"#--$$$++O$$$$$$$###$$$OOO$$$$$$$",
"$$$$$$###$$$$$$$$$$$$$###$$$$$$$",
"$$$$$$$$$$$$$$$$$$$$$$$$$$$$$$$$"
};
