/* XPM */
static char *_2f1114e5238480da68afb949b3aa503hMm1XiX6z0y3nxl3[] = {
/* columns rows colors chars-per-pixel */
"32 32 6 1 ",
"  c None",
". c #545959",
"X c #6B7470",
"o c #818B83",
"O c #9DA89A",
"+ c #C1C8B9",
/* pixels */
"                                ",
"                                ",
"                                ",
"                                ",
"                                ",
"                                ",
"                                ",
"                                ",
"                                ",
"                                ",
"                                ",
"              XXX               ",
"             X+++XX             ",
"            X++++++XX           ",
"            Xo+++OOO+X          ",
"           XOooOOOO+++.         ",
"          XOOOoOO+++++.         ",
"         .OOOOO++++++o.         ",
"         .oOOX++++++oo.         ",
"          ooXo++++oooo.         ",
"            Xooooooooo          ",
"             ooooooo            ",
"                                ",
"                                ",
"                                ",
"                                ",
"                                ",
"                                ",
"                                ",
"                                ",
"                                ",
"                                "
};
